Coordinates
version=1
nRows=12
nColumns=34
inDegrees=yes

Units are S.I. units (second, meters, Newtons, ...)
If the header above contains a line with 'inDegrees', this indicates whether rotational values are in degrees (yes) or radians (no).

endheader
time	pelvis_tilt	pelvis_list	pelvis_rotation	pelvis_tx	pelvis_ty	pelvis_tz	hip_flexion_r	hip_adduction_r	hip_rotation_r	knee_angle_r	ankle_angle_r	subtalar_angle_r	mtp_angle_r	hip_flexion_l	hip_adduction_l	hip_rotation_l	knee_angle_l	ankle_angle_l	subtalar_angle_l	mtp_angle_l	lumbar_extension	lumbar_bending	lumbar_rotation	arm_flex_r	arm_add_r	arm_rot_r	elbow_flex_r	pro_sup_r	arm_flex_l	arm_add_l	arm_rot_l	elbow_flex_l	pro_sup_l
      9.41666670	     -5.10546337	     -1.77797906	      4.19706758	     -1.85691390	      0.94103956	      0.13047344	     -0.85687629	     -5.52846340	    -14.36842011	      1.11424747	      5.92897093	      5.26715512	      0.00000000	      0.18269797	      0.23729771	    -28.68595906	      0.00000000	      8.01202952	      8.33000654	      0.00000000	     -3.21378223	     -3.18904391	      0.75494018	      0.54457467	     -7.05365851	    -11.12355746	     25.50808116	     75.65579512	     -3.05433856	     -8.77712847	    -11.44329236	     21.75405486	     76.15291321
      9.43333330	     -5.10044190	     -1.88425203	      4.33002392	     -1.85985587	      0.94247485	      0.12708085	     -0.88542287	     -5.61315154	    -14.34671858	      0.90762602	      5.88935247	      5.26693833	      0.00000000	      0.28569941	      0.34688639	    -28.66916547	      0.00000000	      8.03286024	      8.43704426	      0.00000000	     -3.24288073	     -3.22736563	      0.77700648	      0.73281618	     -7.12147069	    -11.14815512	     25.59453871	     75.64940845	     -2.99986344	     -8.90330422	    -11.52954499	     21.79402695	     76.15157202
      9.45000000	     -5.04369245	     -2.01355051	      4.48951163	     -1.86314004	      0.94375354	      0.12356403	     -0.88227355	     -5.69229001	    -14.29512045	      0.86575665	      5.84222934	      5.29781250	      0.00000000	      0.32371028	      0.43159327	    -28.67263467	      0.00000000	      8.03922266	      8.47356478	      0.00000000	     -3.22914996	     -3.24034211	      0.80845481	      0.80231492	     -7.10828239	    -11.15021816	     25.62896544	     75.64832562	     -3.00298853	     -8.96307159	    -11.55587535	     21.79831212	     76.15051752
      9.46666670	     -4.73847878	     -2.04575643	      4.78644552	     -1.86762897	      0.94564736	      0.11994853	     -1.31540823	     -5.82086761	    -14.13124185	      0.49936837	      5.31781979	      5.06454111	      0.00000000	      0.11507236	      0.59407435	    -29.04391827	      0.00000000	      8.46210039	     10.14364102	      0.00000000	     -3.67204938	     -3.29996119	     -0.06094712	      1.26975609	     -6.89658149	    -11.46837148	     26.31768130	     75.54580543	     -3.19464360	     -9.11439085	    -12.72172353	     22.10865484	     76.17400572
      9.48333330	     -4.67317693	     -2.13775542	      4.97702929	     -1.87387941	      0.94477499	      0.11691286	     -1.19643875	     -5.97798772	    -13.97313634	      0.59415809	      5.27734812	      5.12657692	      0.00000000	      0.24417763	      0.74349031	    -29.01282171	      0.00000000	      8.50956676	     10.21965741	      0.00000000	     -3.69026496	     -3.31501245	     -0.13538815	      1.38959178	     -6.91593230	    -11.47746335	     26.35083832	     75.54446637	     -2.92638621	     -9.27157642	    -12.79541611	     22.22257749	     76.17809427
      9.50000000	     -4.60226337	     -2.23556128	      5.20473326	     -1.88073350	      0.94183098	      0.11422127	     -0.88116947	     -6.19428538	    -13.75657277	      1.02581574	      5.43337777	      5.02003347	      0.00000000	      0.44393430	      0.89427577	    -28.83240822	      0.00000000	      8.71586086	     10.46133136	      0.00000000	     -3.93408707	     -3.36511332	     -0.27102822	      1.64297920	     -6.89138042	    -11.48779445	     26.43380287	     75.54154410	     -2.53750897	     -9.44177387	    -12.89994769	     22.37246886	     76.18988621
      9.51666670	     -4.42938775	     -2.33035030	      5.45671722	     -1.88579011	      0.93845961	      0.11135913	     -0.54436154	     -6.44411026	    -13.40654030	      1.77786540	      5.95249794	      4.60639564	      0.00000000	      0.55324383	      1.03483200	    -28.68607263	      0.00000000	      9.11214806	     10.80990912	      0.00000000	     -4.19490196	     -3.27425093	     -0.50436451	      1.85561104	     -6.86062915	    -11.51232002	     26.54208085	     75.53382327	     -2.22934510	     -9.58654113	    -13.02778874	     22.52477624	     76.21469750
      9.53333330	     -4.25673332	     -2.51991611	      5.69657569	     -1.88861378	      0.93798973	      0.10813369	     -0.22133489	     -6.60293535	    -12.92455178	      2.60963104	      6.47108439	      4.26719265	      0.00000000	      0.64456182	      1.03208224	    -28.51920276	      0.00000000	      9.37625045	     11.15734269	      0.00000000	     -4.47633261	     -3.19067758	     -0.74867508	      2.01150777	     -6.87972808	    -11.54261028	     26.63751217	     75.52670403	     -1.97243308	     -9.74043168	    -13.11125348	     22.65467718	     76.23416929
      9.55000000	     -4.00787254	     -2.66566965	      5.87746870	     -1.89058146	      0.93921661	      0.10481131	      0.02369099	     -6.81654793	    -12.27194498	      3.60885250	      7.29166842	      3.79296480	      0.00000000	      0.60466840	      1.04700109	    -28.34742385	      0.00000000	      9.63620764	     11.55661145	      0.00000000	     -4.66836373	     -3.02118550	     -0.99920613	      2.05227722	     -6.87779418	    -11.58323392	     26.73123842	     75.51797274	     -1.91136276	     -9.83175253	    -13.19021653	     22.75249149	     76.25535457
      9.56666670	     -3.75942171	     -2.83407190	      6.00471545	     -1.89269993	      0.94068242	      0.10168189	      0.19697798	     -6.98136147	    -11.44499536	      4.61156709	      8.15761642	      3.41581435	      0.00000000	      0.52834086	      1.00411346	    -28.10815579	      0.00000000	      9.80302594	     11.95775853	      0.00000000	     -4.82199027	     -2.89103301	     -1.22477772	      1.99244301	     -6.90043903	    -11.63510163	     26.79495831	     75.50910392	     -1.98226075	     -9.91338494	    -13.26656801	     22.80998926	     76.27027434
      9.58333330	     -3.61278378	     -2.91385060	      5.91449946	     -1.89529233	      0.94203992	      0.09904564	      0.47532427	     -7.18622466	     -9.52338121	      5.65987305	      8.78318321	      1.66039078	      0.00000000	      0.52468952	      1.04765929	    -28.64778572	      0.00000000	     10.13317116	     13.07315327	      0.00000000	     -4.86091205	     -2.79440884	     -1.54399857	      1.97133224	     -6.78812953	    -11.91383938	     27.15198526	     75.49332576	     -2.41588112	     -9.95490079	    -13.86237516	     23.40004007	     76.34074620
      9.60000000	     -3.31537116	     -3.04977257	      6.07434439	     -1.89742813	      0.94347845	      0.09603113	      0.42052981	     -7.35838594	     -8.73682901	      6.83219968	      9.78362194	      1.54401325	      0.00000000	      0.34205594	      1.01230512	    -28.12769057	      0.00000000	     10.08663104	     13.34420487	      0.00000000	     -4.93938917	     -2.64703195	     -1.64397958	      1.70666623	     -6.87187097	    -11.96128934	     27.06758130	     75.49104813	     -2.57534941	     -9.98710660	    -13.93669657	     23.37116043	     76.34497763
